<svg id="logout-variant" xmlns="http://www.w3.org/2000/svg" width="40" height="40" viewBox="0 0 40 40">
  <path id="logout-variant-2" data-name="logout-variant" d="M27.622,30.978l5.756-5.756H11.889V20.778H33.378l-5.756-5.756,3.156-3.133L41.889,23,30.778,34.111l-3.156-3.133M38.556,3A4.444,4.444,0,0,1,43,7.444V17.822l-4.444-4.444V7.444H7.444V38.556H38.556V32.622L43,28.178V38.556A4.444,4.444,0,0,1,38.556,43H7.444A4.443,4.443,0,0,1,3,38.556V7.444A4.429,4.429,0,0,1,7.444,3Z" transform="translate(-3 -3)" fill="#fff"/>
</svg>
