<?xml version="1.0" standalone="no"?>
<!DOCTYPE svg PUBLIC "-//W3C//DTD SVG 20010904//EN"
 "http://www.w3.org/TR/2001/REC-SVG-20010904/DTD/svg10.dtd">
<svg version="1.0" xmlns="http://www.w3.org/2000/svg"
 width="700.000000pt" height="700.000000pt" viewBox="0 0 700.000000 700.000000"
 preserveAspectRatio="xMidYMid meet">
<metadata>
Created by potrace 1.14, written by Peter Selinger 2001-2017
</metadata>
<g transform="translate(0.000000,700.000000) scale(0.100000,-0.100000)"
fill="#000000" stroke="none">
<path d="M3260 6259 c-30 -4 -71 -10 -90 -13 -19 -3 -45 -7 -56 -10 -12 -2
-37 -7 -55 -10 -19 -3 -74 -17 -124 -31 -394 -113 -726 -329 -939 -610 -51
-67 -156 -240 -156 -257 0 -5 -28 20 -63 55 -83 85 -121 102 -222 102 -57 0
-91 -6 -117 -19 -54 -26 -121 -88 -158 -146 -37 -58 -87 -181 -96 -237 -3 -21
-8 -41 -11 -46 -2 -4 -4 -56 -4 -115 -1 -271 105 -489 275 -568 91 -42 208
-28 288 36 20 17 39 30 41 30 3 0 8 -16 11 -35 11 -55 81 -220 127 -299 165
-278 396 -464 744 -597 l100 -38 -200 -2 c-208 -1 -228 -2 -309 -21 -212 -48
-410 -206 -510 -405 -25 -50 -55 -131 -62 -167 -2 -12 -8 -42 -12 -68 -5 -26
-9 -283 -8 -572 1 -381 -2 -526 -10 -526 -6 0 -54 22 -107 49 -430 223 -797
547 -937 829 -53 107 -105 262 -116 347 -2 17 -6 41 -9 55 -8 37 -8 207 0 265
11 83 56 204 99 268 138 207 495 343 698 267 113 -42 200 -170 200 -294 0
-123 -140 -223 -372 -266 -154 -29 -195 -63 -195 -160 1 -39 6 -63 20 -82 45
-60 103 -71 237 -43 478 101 683 403 531 785 -79 198 -248 335 -449 365 -256
38 -594 -84 -794 -286 -248 -250 -320 -650 -195 -1084 29 -101 74 -213 120
-300 197 -371 681 -772 1220 -1012 71 -31 71 -31 84 -85 19 -77 75 -193 123
-257 107 -143 233 -232 413 -292 l70 -24 1170 -3 c1271 -3 1257 -3 1401 54
238 94 414 301 473 555 18 78 19 122 17 768 -2 773 1 735 -81 906 -110 228
-328 388 -585 429 -14 3 -117 5 -230 6 l-205 1 103 39 c345 131 599 340 755
621 43 77 88 184 107 254 7 28 14 51 16 53 1 2 22 -12 47 -31 53 -41 128 -61
200 -55 137 12 252 128 318 320 34 100 41 146 41 259 -1 163 -47 319 -127 428
-77 105 -164 153 -269 150 -84 -3 -137 -29 -213 -106 -35 -35 -63 -60 -63 -55
0 17 -105 190 -156 257 -211 280 -541 495 -928 606 -113 33 -117 34 -271 59
-118 19 -438 24 -545 9z m-146 -484 c109 -16 233 -83 333 -181 l53 -52 54 54
c98 96 204 153 330 177 270 51 541 -103 684 -388 33 -66 70 -172 77 -220 3
-16 9 -56 13 -88 27 -178 -16 -412 -106 -577 -63 -114 -162 -220 -263 -279
l-56 -34 19 -66 c60 -211 8 -424 -147 -609 -28 -33 -131 -114 -186 -146 -49
-28 -169 -78 -169 -70 0 3 -8 0 -18 -5 -10 -5 -36 -12 -58 -15 -22 -4 -51 -9
-64 -11 -35 -7 -199 -7 -235 0 -127 25 -179 42 -274 92 -58 31 -169 113 -197
146 -120 143 -174 271 -179 426 -2 78 12 173 33 231 9 23 4 28 -62 71 -187
121 -313 330 -350 580 -58 387 117 770 417 913 116 56 217 70 351 51z m-585
-2742 c29 -18 55 -45 70 -73 23 -41 25 -55 25 -191 1 -145 1 -146 -29 -194
-20 -32 -45 -56 -74 -72 -40 -21 -57 -23 -185 -23 -127 0 -146 2 -186 23 -26
12 -57 40 -74 64 -29 42 -30 47 -33 178 -4 149 5 199 43 245 54 63 106 76 288
73 100 -2 112 -4 155 -30z m768 5 c43 -21 84 -71 99 -118 4 -14 7 -84 7 -156
-1 -162 -15 -199 -93 -254 -32 -23 -45 -25 -174 -29 -154 -3 -197 5 -247 46
-56 48 -69 91 -69 243 0 173 13 207 99 267 50 35 308 36 378 1z m755 13 c43
-14 102 -75 117 -120 6 -19 11 -93 11 -165 0 -142 -13 -188 -61 -233 -48 -44
-90 -53 -231 -52 -145 1 -182 9 -228 53 -52 48 -61 86 -62 237 -1 121 1 141
21 182 27 55 83 96 146 105 72 10 248 6 287 -7z m763 5 c43 -9 114 -74 130
-121 9 -28 13 -82 11 -180 -3 -161 -12 -189 -85 -240 l-43 -30 -162 0 c-161 0
-163 0 -203 28 -22 15 -50 46 -63 69 -22 39 -24 55 -25 183 -1 129 1 143 23
188 31 61 83 97 154 106 58 7 217 5 263 -3z m-2302 -791 c47 -22 92 -76 104
-124 5 -20 9 -95 8 -167 -2 -147 -16 -189 -79 -232 -52 -35 -92 -43 -226 -41
-158 2 -199 18 -255 104 -17 26 -20 51 -22 173 -2 119 1 149 16 185 42 98 103
123 288 122 101 -1 136 -5 166 -20z m784 -3 c83 -43 104 -97 105 -267 1 -149
-12 -195 -68 -244 -49 -44 -100 -54 -251 -49 -127 3 -134 5 -175 33 -25 18
-52 49 -65 75 -21 39 -23 59 -23 181 0 146 10 189 52 230 63 59 88 65 258 64
107 -1 131 -5 167 -23z m765 6 c48 -21 95 -72 108 -117 5 -20 10 -95 10 -166
0 -116 -3 -136 -22 -175 -14 -26 -41 -57 -66 -75 -40 -28 -50 -30 -153 -33
-157 -6 -211 3 -261 41 -70 54 -81 86 -81 250 0 126 2 147 22 184 23 47 82 92
133 102 63 13 271 5 310 -11z m778 0 c43 -19 74 -48 97 -91 15 -26 18 -58 18
-182 0 -174 -10 -205 -84 -259 -43 -31 -43 -31 -189 -34 -138 -2 -149 -1 -197
23 -56 28 -94 76 -104 133 -4 20 -6 91 -6 157 1 94 5 128 20 158 20 44 70 87
116 102 49 17 287 11 329 -7z m10 -782 c75 -41 115 -116 104 -197 -11 -78 -47
-124 -119 -154 -35 -15 -155 -17 -1335 -17 -1182 0 -1299 1 -1335 16 -73 31
-108 77 -120 159 -13 85 54 182 141 206 16 4 614 7 1329 7 1255 -1 1301 -2
1335 -20z"/>
<path d="M2934 5379 c-267 -101 -283 -603 -22 -733 124 -62 256 -11 332 127
165 302 -42 707 -310 606z"/>
<path d="M3920 5384 c-93 -27 -177 -130 -209 -255 -39 -155 2 -332 100 -430
51 -51 91 -70 160 -76 49 -5 67 -2 113 21 122 60 190 191 190 366 0 102 -21
178 -69 252 -71 108 -178 154 -285 122z"/>
<path d="M3369 4516 c-2 -2 -25 -6 -51 -9 -125 -15 -141 -72 -47 -165 60 -59
168 -112 229 -112 85 0 237 94 279 173 28 52 0 85 -84 103 -34 7 -319 16 -326
10z"/>
<path d="M3338 4024 c-167 -22 -232 -59 -224 -127 7 -51 39 -109 82 -147 38
-33 122 -76 166 -86 110 -24 191 -23 278 2 142 41 225 118 245 228 6 31 4 41
-16 62 -59 63 -319 96 -531 68z"/>
</g>
</svg>
